<?xml version="1.0" standalone="no"?>
<!DOCTYPE svg PUBLIC "-//W3C//DTD SVG 20010904//EN"
 "http://www.w3.org/TR/2001/REC-SVG-20010904/DTD/svg10.dtd">
<svg version="1.0" xmlns="http://www.w3.org/2000/svg"
 width="512.000000pt" height="512.000000pt" viewBox="0 0 512.000000 512.000000"
 preserveAspectRatio="xMidYMid meet">

<g transform="translate(0.000000,512.000000) scale(0.100000,-0.100000)"
fill="#000000" stroke="none">
<path d="M320 4320 l0 -160 320 0 320 0 0 -240 c0 -210 -2 -240 -15 -240 -9 0
-27 -11 -40 -25 -24 -23 -25 -29 -25 -159 l0 -135 -229 -3 c-252 -3 -255 -4
-305 -72 -21 -27 -21 -31 -21 -1285 l0 -1258 29 -37 c54 -72 -128 -66 2220
-64 l2125 3 27 21 c15 11 37 33 48 48 21 27 21 33 24 1272 3 1377 7 1286 -64
1340 l-37 29 -229 3 -228 3 0 135 c0 130 -1 136 -25 159 -13 14 -31 25 -40 25
-13 0 -15 30 -15 240 l0 240 320 0 320 0 0 160 0 160 -2240 0 -2240 0 0 -160z
m3520 -400 c0 -210 -2 -240 -15 -240 -9 0 -27 -11 -40 -25 -24 -23 -25 -29
-25 -160 l0 -135 -1200 0 -1200 0 0 135 c0 131 -1 137 -25 160 -13 14 -31 25
-40 25 -13 0 -15 30 -15 240 l0 240 1280 0 1280 0 0 -240z m-1500 -1382 c56
-17 102 -43 163 -93 l56 -45 71 54 c90 70 163 98 255 99 123 1 200 -33 430
-187 179 -120 280 -167 375 -173 55 -4 72 -1 110 19 59 32 104 106 127 210 10
43 20 78 23 78 3 0 29 -33 59 -73 63 -83 124 -209 140 -285 49 -233 -76 -450
-341 -591 -207 -111 -446 -134 -686 -65 -129 36 -328 139 -454 234 l-108 81
-107 -81 c-127 -95 -326 -198 -455 -234 -189 -54 -372 -52 -543 5 -350 117
-542 375 -484 651 16 76 77 202 140 285 30 40 57 73 60 73 3 0 11 -28 17 -62
17 -92 65 -183 113 -215 76 -50 186 -40 321 28 32 16 120 72 196 123 148 100
209 134 287 159 86 27 156 29 235 5z"/>
</g>
</svg>
